<svg width="178" height="67" viewBox="0 0 178 67" fill="none" xmlns="http://www.w3.org/2000/svg">
<path d="M66.7512 0H66.3574V67H66.7512V0Z" fill="white"/>
<path d="M66.6777 0.0205333H66.3692V67H66.6777V0.0205333Z" fill="white"/>
<path d="M90.1704 3.28241V19.4303H86.23V12.7805H80.1005V19.4303H76.1602V3.28241H80.1005V9.60958H86.23V3.28241H90.1704Z" fill="white"/>
<path d="M96.875 3.28247V12.9448C96.875 13.9099 97.113 14.655 97.589 15.1771C98.065 15.6992 98.7644 15.9603 99.687 15.9603C100.61 15.9603 101.315 15.6992 101.806 15.1771C102.296 14.655 102.543 13.9128 102.543 12.9448V3.28247H106.484V12.9214C106.484 14.3646 106.175 15.5819 105.561 16.5792C104.947 17.5765 104.121 18.3275 103.084 18.8349C102.047 19.3424 100.892 19.5947 99.6165 19.5947C98.3412 19.5947 97.2011 19.3453 96.1933 18.8467C95.1854 18.348 94.392 17.5971 93.8073 16.591C93.2225 15.5878 92.9316 14.3646 92.9316 12.9214V3.28247H96.875Z" fill="white"/>
<path d="M127.57 3.28247V19.4304H123.63V9.74751L120.012 19.4333H116.833L113.192 9.72405V19.4333H109.252V3.28247H113.906L118.446 14.4614L122.939 3.28247H127.57Z" fill="white"/>
<path d="M140.476 16.5792H134.438L133.471 19.4304H129.346L135.199 3.28247H139.762L145.616 19.4304H141.443L140.476 16.5792ZM139.463 13.5432L137.459 7.62965L135.478 13.5432H139.466H139.463Z" fill="white"/>
<path d="M161.862 19.4333H157.922L151.331 9.47178V19.4333H147.391V3.28247H151.331L157.922 13.288V3.28247H161.862V19.4333Z" fill="white"/>
<path d="M167.391 19.0198C166.454 18.6355 165.704 18.0694 165.143 17.3184C164.582 16.5675 164.285 15.6611 164.256 14.6051H168.449C168.511 15.2035 168.716 15.6611 169.072 15.975C169.424 16.2888 169.886 16.4472 170.456 16.4472C171.026 16.4472 171.499 16.3123 171.84 16.0454C172.178 15.7785 172.348 15.4059 172.348 14.9307C172.348 14.5318 172.213 14.2033 171.946 13.9422C171.675 13.6811 171.346 13.467 170.955 13.2969C170.565 13.1297 170.006 12.9361 169.283 12.7219C168.237 12.3993 167.385 12.0766 166.724 11.7569C166.063 11.4342 165.496 10.959 165.02 10.3313C164.544 9.70354 164.306 8.88221 164.306 7.87021C164.306 6.36835 164.849 5.18916 165.942 4.3385C167.033 3.48783 168.455 3.0625 170.206 3.0625C171.957 3.0625 173.424 3.48783 174.517 4.3385C175.607 5.18916 176.192 6.37422 176.268 7.89368H172.004C171.972 7.37155 171.781 6.96088 171.428 6.66169C171.076 6.36249 170.623 6.21289 170.068 6.21289C169.592 6.21289 169.207 6.33902 168.916 6.59129C168.625 6.84355 168.478 7.20728 168.478 7.68542C168.478 8.20755 168.725 8.61235 169.216 8.90568C169.707 9.19608 170.476 9.51288 171.52 9.85021C172.563 10.2022 173.412 10.5395 174.067 10.8622C174.719 11.1849 175.284 11.6513 175.76 12.2643C176.236 12.8774 176.474 13.6665 176.474 14.6345C176.474 15.6025 176.239 16.3915 175.771 17.1424C175.304 17.8934 174.623 18.4918 173.732 18.9376C172.842 19.3835 171.79 19.6035 170.576 19.6035C169.363 19.6035 168.334 19.4128 167.397 19.0286L167.391 19.0198Z" fill="white"/>
<path d="M79.3195 39.2656C78.1853 38.6232 77.292 37.7256 76.6338 36.5728C75.9756 35.42 75.6465 34.1234 75.6465 32.6832C75.6465 31.2429 75.9756 29.9435 76.6338 28.7907C77.292 27.6379 78.1882 26.7403 79.3195 26.0979C80.4537 25.4555 81.7055 25.1328 83.0777 25.1328C84.4499 25.1328 85.7252 25.4555 86.8594 26.0979C87.9907 26.7403 88.8839 27.6349 89.5363 28.7789C90.1886 29.9229 90.5148 31.2253 90.5148 32.6803C90.5148 34.1352 90.1886 35.4376 89.5363 36.5816C88.8839 37.7256 87.9936 38.6202 86.8594 39.2626C85.7252 39.905 84.4646 40.2277 83.0777 40.2277C81.6908 40.2277 80.4508 39.905 79.3195 39.2626V39.2656ZM85.8721 37.8341C86.7007 37.353 87.353 36.6666 87.8261 35.7778C88.2992 34.8861 88.5372 33.8565 88.5372 32.6832C88.5372 31.5099 88.2992 30.4597 87.8261 29.5768C87.3501 28.6939 86.7037 28.0104 85.8809 27.5293C85.0611 27.0483 84.1238 26.8077 83.0777 26.8077C82.0316 26.8077 81.0943 27.0483 80.2745 27.5293C79.4546 28.0104 78.8053 28.6909 78.3322 29.5768C77.8562 30.4597 77.6211 31.4952 77.6211 32.6832C77.6211 33.8712 77.8591 34.889 78.3322 35.7778C78.8053 36.6696 79.4576 37.353 80.2862 37.8341C81.1148 38.3152 82.0463 38.5557 83.0806 38.5557C84.1149 38.5557 85.0464 38.3152 85.875 37.8341H85.8721Z" fill="white"/>
<path d="M101.427 25.3027V26.8721H94.9921V31.8558H100.217V33.4251H94.9921V40.0837H93.0586V25.3027H101.427Z" fill="white"/>
<path d="M118.068 32.6919C117.224 33.5044 115.94 33.9122 114.212 33.9122H111.365V40.0839H109.432V25.3029H114.209C115.881 25.3029 117.151 25.7047 118.023 26.5114C118.896 27.318 119.331 28.3564 119.331 29.6295C119.331 30.9026 118.911 31.8823 118.068 32.6948V32.6919ZM116.592 31.6212C117.101 31.1548 117.356 30.489 117.356 29.6266C117.356 27.802 116.307 26.8927 114.212 26.8927H111.365V32.3223H114.212C115.288 32.3223 116.081 32.0906 116.592 31.6242V31.6212Z" fill="white"/>
<path d="M123.622 25.3027V34.6542C123.622 35.9683 123.945 36.9451 124.589 37.5816C125.232 38.2181 126.128 38.5349 127.274 38.5349C128.42 38.5349 129.296 38.2181 129.939 37.5816C130.583 36.9451 130.906 35.9712 130.906 34.6542V25.3027H132.84V34.6336C132.84 35.8627 132.593 36.8982 132.096 37.74C131.6 38.5819 130.933 39.2067 130.089 39.6173C129.246 40.028 128.303 40.2333 127.254 40.2333C126.205 40.2333 125.262 40.028 124.418 39.6173C123.575 39.2067 122.911 38.5819 122.423 37.74C121.935 36.8982 121.691 35.8627 121.691 34.6336V25.3027H123.625H123.622Z" fill="white"/>
<path d="M144.956 33.1259C145.403 33.4808 145.755 33.9179 146.017 34.44C146.278 34.9622 146.411 35.5224 146.411 36.115C146.411 36.863 146.22 37.5406 145.838 38.139C145.456 38.7403 144.9 39.2126 144.171 39.5587C143.443 39.9048 142.582 40.0779 141.592 40.0779H136.07V25.2969H141.38C142.385 25.2969 143.243 25.4641 143.951 25.7955C144.659 26.127 145.191 26.5758 145.544 27.1419C145.896 27.7081 146.076 28.3446 146.076 29.0515C146.076 29.9286 145.838 30.6531 145.364 31.2251C144.888 31.7971 144.263 32.2107 143.484 32.4659C144.022 32.551 144.515 32.771 144.959 33.123L144.956 33.1259ZM138.001 31.6827H141.251C142.156 31.6827 142.858 31.4715 143.355 31.0462C143.851 30.6209 144.098 30.0342 144.098 29.2862C144.098 28.5382 143.851 27.9515 143.355 27.5262C142.858 27.1009 142.144 26.8897 141.21 26.8897H138.001V31.6827ZM143.672 37.8104C144.21 37.3587 144.48 36.728 144.48 35.9243C144.48 35.1206 144.198 34.4576 143.631 33.9854C143.064 33.5131 142.306 33.2755 141.359 33.2755H138.004V38.491H141.424C142.388 38.491 143.137 38.2651 143.675 37.8134L143.672 37.8104Z" fill="white"/>
<path d="M151.017 38.5115H156.201V40.0808H149.084V25.2998H151.017V38.5115Z" fill="white"/>
<path d="M160.195 25.3029V40.0839H158.262V25.3029H160.195Z" fill="white"/>
<path d="M163.742 28.7905C164.394 27.6377 165.282 26.7371 166.407 26.0859C167.533 25.4347 168.782 25.1091 170.157 25.1091C171.77 25.1091 173.18 25.4993 174.385 26.2766C175.59 27.0539 176.465 28.1569 177.018 29.5854H174.702C174.291 28.6937 173.7 28.0102 172.928 27.5291C172.155 27.0481 171.232 26.8075 170.157 26.8075C169.081 26.8075 168.197 27.0481 167.374 27.5291C166.554 28.0102 165.908 28.6907 165.441 29.5766C164.973 30.4595 164.738 31.495 164.738 32.683C164.738 33.871 164.97 34.8859 165.441 35.7688C165.908 36.6518 166.551 37.3352 167.374 37.8163C168.194 38.2973 169.122 38.5379 170.157 38.5379C171.191 38.5379 172.158 38.3003 172.928 37.828C173.7 37.3558 174.291 36.6723 174.702 35.7806H177.018C176.465 37.1944 175.587 38.2856 174.385 39.0571C173.18 39.8285 171.773 40.2128 170.157 40.2128C168.784 40.2128 167.533 39.8901 166.407 39.2477C165.282 38.6053 164.392 37.7107 163.742 36.5667C163.09 35.4227 162.764 34.1291 162.764 32.6859C162.764 31.2427 163.09 29.9462 163.742 28.7934V28.7905Z" fill="white"/>
<path d="M78.9605 62.999C78.0789 62.603 77.3884 62.0544 76.8889 61.3534C76.3864 60.6523 76.1279 59.8398 76.1132 58.9217H78.4639C78.5432 59.7136 78.8723 60.3766 79.4453 60.9192C80.0183 61.459 80.8557 61.7288 81.9547 61.7288C83.0536 61.7288 83.8323 61.4678 84.4406 60.9427C85.0459 60.4176 85.3485 59.7459 85.3485 58.9217C85.3485 58.2763 85.1693 57.7513 84.8137 57.3494C84.4582 56.9475 84.0145 56.6395 83.4797 56.4283C82.9449 56.2201 82.228 55.9913 81.3229 55.7507C80.2063 55.4603 79.3131 55.1699 78.6431 54.8795C77.9732 54.5891 77.3972 54.1345 76.9212 53.5126C76.4452 52.8907 76.2072 52.0577 76.2072 51.0076C76.2072 50.0865 76.4423 49.274 76.9095 48.5641C77.3767 47.8542 78.0378 47.3057 78.8841 46.9185C79.7303 46.5313 80.7059 46.3377 81.8048 46.3377C83.3886 46.3377 84.6844 46.7337 85.6953 47.5228C86.7061 48.3148 87.2761 49.362 87.4054 50.6702H84.9812C84.899 50.0249 84.561 49.4558 83.9616 48.963C83.3622 48.4702 82.5717 48.2238 81.5844 48.2238C80.6618 48.2238 79.9125 48.4614 79.3307 48.9366C78.7489 49.4118 78.458 50.0777 78.458 50.9342C78.458 51.5473 78.6314 52.0459 78.9781 52.4361C79.3248 52.8233 79.7538 53.1166 80.2622 53.319C80.7705 53.5214 81.4875 53.7502 82.4072 54.0083C83.5209 54.3163 84.42 54.6185 85.0988 54.9147C85.7775 55.2139 86.3593 55.6745 86.8442 56.2934C87.329 56.9153 87.57 57.7571 87.57 58.8219C87.57 59.6433 87.3525 60.4206 86.9147 61.1451C86.4769 61.8696 85.8304 62.4592 84.9754 62.911C84.1173 63.3627 83.1095 63.5886 81.9459 63.5886C80.7823 63.5886 79.8332 63.392 78.9516 62.996L78.9605 62.999Z" fill="white"/>
<path d="M94.0993 48.344V53.9819H100.258V55.7976H94.0993V61.6056H100.984V63.4213H91.8926V46.5283H100.984V48.344H94.0993Z" fill="white"/>
<path d="M114.293 63.4213L110.267 56.5221H107.599V63.4213H105.393V46.5518H110.846C112.122 46.5518 113.203 46.7688 114.084 47.2059C114.966 47.643 115.624 48.2296 116.059 48.9717C116.497 49.7139 116.714 50.5616 116.714 51.512C116.714 52.6736 116.379 53.7003 115.709 54.5861C115.039 55.4749 114.031 56.0616 112.692 56.352L116.935 63.4184H114.293V63.4213ZM107.602 54.7563H110.852C112.048 54.7563 112.944 54.4629 113.544 53.8733C114.14 53.2837 114.44 52.4976 114.44 51.5149C114.44 50.5323 114.146 49.7403 113.555 49.1917C112.965 48.6432 112.066 48.3704 110.852 48.3704H107.602V54.7592V54.7563Z" fill="white"/>
<path d="M135.163 46.5518L128.786 63.4213H126.242L119.865 46.5518H122.216L127.526 61.0981L132.835 46.5518H135.163Z" fill="white"/>
<path d="M140.855 46.5518V63.4213H138.648V46.5518H140.855Z" fill="white"/>
<path d="M145.97 50.5352C146.714 49.2211 147.727 48.1915 149.011 47.4494C150.295 46.7072 151.723 46.3347 153.29 46.3347C155.132 46.3347 156.739 46.7776 158.114 47.6664C159.487 48.5552 160.492 49.8136 161.12 51.4416H158.479C158.009 50.4238 157.336 49.6435 156.454 49.095C155.573 48.5464 154.518 48.2736 153.29 48.2736C152.061 48.2736 151.051 48.5494 150.113 49.095C149.176 49.6435 148.441 50.4238 147.907 51.4299C147.372 52.439 147.107 53.6211 147.107 54.9763C147.107 56.3315 147.375 57.4901 147.907 58.4963C148.441 59.5053 149.176 60.2827 150.113 60.8312C151.051 61.3797 152.108 61.6555 153.29 61.6555C154.471 61.6555 155.573 61.3856 156.454 60.8459C157.336 60.3061 158.009 59.5259 158.479 58.5109H161.12C160.489 60.1243 159.487 61.3709 158.114 62.2509C156.739 63.1309 155.132 63.5709 153.29 63.5709C151.721 63.5709 150.295 63.2042 149.011 62.4709C147.727 61.7376 146.711 60.7168 145.97 59.4085C145.227 58.1003 144.854 56.6248 144.854 54.9792C144.854 53.3336 145.224 51.8523 145.97 50.5382V50.5352Z" fill="white"/>
<path d="M167.664 48.344V53.9819H173.823V55.7976H167.664V61.6056H174.548V63.4213H165.457V46.5283H174.548V48.344H167.664Z" fill="white"/>
<path d="M58.474 33.5894C58.474 34.0675 58.4623 34.5456 58.4388 35.0208C58.4153 35.499 58.38 35.9742 58.333 36.4494C58.286 36.9246 58.2272 37.3998 58.1567 37.872C58.0862 38.3443 58.0039 38.8136 57.9128 39.283C57.8188 39.7523 57.7159 40.2158 57.5984 40.6792C57.4809 41.1427 57.3545 41.6032 57.2164 42.0608C57.0783 42.5184 56.9284 42.9701 56.7668 43.4219C56.6052 43.8707 56.4348 44.3165 56.2497 44.7595C56.0675 45.1995 55.8736 45.6365 55.6679 46.0677C55.4622 46.4989 55.2477 46.9272 55.0214 47.3467C54.7952 47.7691 54.5601 48.1827 54.3133 48.5933C54.0664 49.004 53.8108 49.4059 53.5463 49.8019C53.2819 50.1979 53.0057 50.588 52.7207 50.9722C52.4356 51.3565 52.1418 51.732 51.8391 52.1016C51.5365 52.4712 51.2221 52.832 50.9018 53.1869C50.5815 53.5418 50.2495 53.885 49.9115 54.2253C49.5736 54.5626 49.2269 54.8912 48.8714 55.2138C48.5158 55.5336 48.1544 55.8474 47.7842 56.1496C47.4139 56.4517 47.0378 56.745 46.6529 57.0296C46.2679 57.3141 45.8771 57.5898 45.4805 57.8538C45.0838 58.1178 44.6783 58.3759 44.2669 58.6194C43.8555 58.8658 43.4412 59.1005 43.0181 59.3263C42.5949 59.5522 42.1689 59.7663 41.7369 59.9717C41.305 60.177 40.8672 60.3706 40.4264 60.5525C39.9857 60.7343 39.539 60.9074 39.0865 61.0687C38.6369 61.2301 38.1815 61.3797 37.7231 61.5175C37.2647 61.6554 36.8034 61.7845 36.3391 61.8989C35.8748 62.0133 35.4076 62.1189 34.9404 62.2127C34.4732 62.3066 34.0001 62.3887 33.5271 62.4562C33.054 62.5266 32.578 62.5853 32.1019 62.6322C31.6259 62.6791 31.1499 62.7143 30.6709 62.7378C30.192 62.7613 29.716 62.773 29.237 62.773C28.7581 62.773 28.2791 62.7613 27.8031 62.7378C27.3271 62.7143 26.8481 62.6791 26.3721 62.6322C25.8961 62.5853 25.42 62.5266 24.947 62.4562C24.4739 62.3858 24.0037 62.3037 23.5336 62.2127C23.0634 62.1189 22.5992 62.0162 22.1349 61.8989C21.6707 61.7815 21.2093 61.6554 20.7509 61.5175C20.2925 61.3797 19.84 61.2301 19.3875 61.0687C18.9379 60.9074 18.4913 60.7373 18.0476 60.5525C17.6069 60.3706 17.169 60.177 16.7371 59.9717C16.3051 59.7663 15.8761 59.5522 15.4559 59.3263C15.0328 59.1005 14.6185 58.8658 14.2071 58.6194C13.7958 58.373 13.3932 58.1178 12.9936 57.8538C12.594 57.5898 12.2061 57.3141 11.8212 57.0296C11.4362 56.745 11.0601 56.4517 10.6899 56.1496C10.3196 55.8474 9.95822 55.5336 9.60267 55.2138C9.24712 54.8941 8.90333 54.5626 8.56248 54.2253C8.22456 53.888 7.89546 53.5418 7.57224 53.1869C7.25195 52.832 6.93755 52.4712 6.63489 52.1016C6.33224 51.732 6.0384 51.3565 5.75337 50.9722C5.46835 50.588 5.19214 50.1979 4.92769 49.8019C4.66323 49.4059 4.40465 49.0011 4.16077 48.5933C3.91394 48.1827 3.67887 47.7691 3.45261 47.3467C3.22636 46.9243 3.01185 46.4989 2.80617 46.0677C2.60048 45.6365 2.40654 45.1995 2.22436 44.7595C2.04218 44.3195 1.86882 43.8736 1.70721 43.4219C1.54559 42.9701 1.39574 42.5184 1.25763 42.0608C1.11953 41.6032 0.990239 41.1427 0.875641 40.6792C0.758106 40.2158 0.655262 39.7494 0.561233 39.283C0.467205 38.8136 0.38493 38.3443 0.317346 37.872C0.246825 37.3998 0.188057 36.9246 0.141043 36.4494C0.0940286 35.9742 0.0587679 35.499 0.0352607 35.0208C0.0117536 34.5427 0 34.0675 0 33.5894C0 33.1112 0.0117536 32.6331 0.0352607 32.1579C0.0587679 31.6798 0.0940286 31.2046 0.141043 30.7294C0.188057 30.2542 0.246825 29.779 0.317346 29.3067C0.387868 28.8345 0.470143 28.3651 0.561233 27.8958C0.655262 27.4265 0.758106 26.963 0.875641 26.4995C0.993177 26.0361 1.11953 25.5755 1.25763 25.1179C1.39574 24.6604 1.54559 24.2086 1.70721 23.7569C1.86882 23.3081 2.03925 22.8622 2.22436 22.4193C2.40654 21.9793 2.60048 21.5422 2.80617 21.111C3.01185 20.6798 3.22636 20.2516 3.45261 19.8321C3.67887 19.4097 3.91394 18.9961 4.16077 18.5854C4.40759 18.1748 4.66323 17.7729 4.92769 17.374C5.19214 16.978 5.46835 16.5879 5.75337 16.2036C6.0384 15.8193 6.33224 15.4439 6.63489 15.0743C6.93755 14.7047 7.25195 14.3439 7.57224 13.9889C7.89252 13.634 8.22456 13.2879 8.56248 12.9505C8.90039 12.6132 9.24712 12.2847 9.60267 11.962C9.95822 11.6423 10.3196 11.3284 10.6899 11.0263C11.0601 10.7241 11.4362 10.4308 11.8212 10.1463C12.2061 9.86174 12.5969 9.58601 12.9936 9.32201C13.3903 9.05801 13.7958 8.79988 14.2071 8.55642C14.6185 8.31002 15.0328 8.07535 15.4559 7.84948C15.8791 7.62362 16.3051 7.40949 16.7371 7.20415C17.169 6.99882 17.6069 6.80522 18.0476 6.62336C18.4884 6.44149 18.935 6.26842 19.3875 6.10709C19.8371 5.94576 20.2925 5.79616 20.7509 5.65829C21.2093 5.52043 21.6707 5.39136 22.1349 5.27696C22.5992 5.16256 23.0664 5.05696 23.5336 4.9631C24.0037 4.86923 24.4739 4.7871 24.947 4.71963C25.42 4.64923 25.8961 4.59056 26.3721 4.54363C26.8481 4.4967 27.3241 4.4615 27.8031 4.43803C28.282 4.41457 28.7581 4.40283 29.237 4.40283C29.716 4.40283 30.1949 4.41457 30.6709 4.43803C31.147 4.4615 31.6259 4.4967 32.1019 4.54363C32.578 4.59056 33.054 4.64923 33.5271 4.71963C34.0001 4.79003 34.4703 4.87216 34.9404 4.9631C35.4106 5.05696 35.8748 5.15963 36.3391 5.27696C36.8034 5.39429 37.2647 5.52043 37.7231 5.65829C38.1815 5.79616 38.634 5.94576 39.0865 6.10709C39.5361 6.26842 39.9827 6.43856 40.4264 6.62336C40.8672 6.80522 41.305 6.99882 41.7369 7.20415C42.1689 7.40949 42.5979 7.62362 43.0181 7.84948C43.4383 8.07535 43.8555 8.31002 44.2669 8.55642C44.6783 8.80281 45.0808 9.05801 45.4805 9.32201C45.8771 9.58601 46.2679 9.86174 46.6529 10.1463C47.0378 10.4308 47.4139 10.7241 47.7842 11.0263C48.1544 11.3284 48.5158 11.6423 48.8714 11.962C49.2269 12.2817 49.5736 12.6132 49.9115 12.9505C50.2495 13.2879 50.5786 13.634 50.9018 13.9889C51.2221 14.3439 51.5365 14.7047 51.8391 15.0743C52.1418 15.4439 52.4356 15.8193 52.7207 16.2036C53.0057 16.5879 53.2819 16.978 53.5463 17.374C53.8108 17.77 54.0694 18.1748 54.3133 18.5854C54.5601 18.9961 54.7952 19.4097 55.0214 19.8321C55.2477 20.2545 55.4622 20.6798 55.6679 21.111C55.8736 21.5422 56.0675 21.9793 56.2497 22.4193C56.4318 22.8593 56.6052 23.3052 56.7668 23.7569C56.9284 24.2057 57.0783 24.6604 57.2164 25.1179C57.3545 25.5755 57.4838 26.0361 57.5984 26.4995C57.7159 26.963 57.8188 27.4294 57.9128 27.8958C58.0068 28.3651 58.0891 28.8345 58.1567 29.3067C58.2272 29.779 58.286 30.2542 58.333 30.7294C58.38 31.2046 58.4153 31.6798 58.4388 32.1579C58.4623 32.6361 58.474 33.1112 58.474 33.5894Z" fill="white"/>
<path d="M50.0866 23.8478H28.795V27.799H50.0866V23.8478Z" fill="#743795"/>
<path d="M50.0866 23.8478H28.795V27.799H50.0866V23.8478Z" fill="#743795"/>
<path d="M50.0866 29.8876H28.795V33.8388H50.0866V29.8876Z" fill="#743795"/>
<path d="M50.0866 29.8876H28.795V33.8388H50.0866V29.8876Z" fill="#743795"/>
<path d="M50.0882 36.0739H9.79694V40.0251H50.0882V36.0739Z" fill="#743795"/>
<path d="M50.0911 36.0739H9.79694V40.0251H50.0911V36.0739Z" fill="#743795"/>
<path d="M50.0871 42.0432H9.82819V45.9943H50.0871V42.0432Z" fill="#743795"/>
<path d="M50.0901 42.0432H9.82819V45.9943H50.0901V42.0432Z" fill="#743795"/>
<path d="M12.2009 27.5469C13.4066 27.5469 14.3841 26.6525 14.3841 25.5493C14.3841 24.446 13.4066 23.5517 12.2009 23.5517C10.9951 23.5517 10.0176 24.446 10.0176 25.5493C10.0176 26.6525 10.9951 27.5469 12.2009 27.5469Z" fill="#743795"/>
<path d="M14.2078 28.7055H10.0176V34.0324H14.2078V28.7055Z" fill="#743795"/>
<path d="M14.2078 28.7055H10.0176V34.0324H14.2078V28.7055Z" fill="#743795"/>
<path d="M18.2009 27.5469C19.4066 27.5469 20.3841 26.6525 20.3841 25.5493C20.3841 24.446 19.4066 23.5517 18.2009 23.5517C16.9951 23.5517 16.0176 24.446 16.0176 25.5493C16.0176 26.6525 16.9951 27.5469 18.2009 27.5469Z" fill="#743795"/>
<path d="M24.2009 27.5469C25.4066 27.5469 26.3841 26.6525 26.3841 25.5493C26.3841 24.446 25.4066 23.5517 24.2009 23.5517C22.9951 23.5517 22.0176 24.446 22.0176 25.5493C22.0176 26.6525 22.9951 27.5469 24.2009 27.5469Z" fill="#743795"/>
<path d="M20.2078 28.7055H16.0176V34.0324H20.2078V28.7055Z" fill="#743795"/>
<path d="M20.2078 28.7055H16.0176V34.0324H20.2078V28.7055Z" fill="#743795"/>
<path d="M26.2078 28.7055H22.0176V34.0324H26.2078V28.7055Z" fill="#743795"/>
<path d="M26.2078 28.7055H22.0176V34.0324H26.2078V28.7055Z" fill="#743795"/>
</svg>
